# xmcd
#
# Track frame offsets: 
#        150
#        11411
#        21495
#        32250
#        42070
#        55714
#        67559
#        79197
#        89085
#        101398
#        115008
#        125997
#        141131
#        153222
#
# Disc length: 2224 seconds
#
# Revision: 0
# Processed by: cddbd v1.5PL3 Copyright (c) Steve Scherf et al.
# Submitted via: ExactAudioCopy v0.90b4
#
DISCID=a508ae0e
DTITLE=Steve Earle  - Early Tracks 1982-85
DYEAR=1987
DGENRE=Country
TTITLE0=Nothin' but You 
TTITLE1=If You needed a fool 
TTITLE2=Continental Trailways Blues 
TTITLE3=Open up your door 
TTITLE4=Breakdown Lane 
TTITLE5=Squeeze me in 
TTITLE6=Annie, is tonight the night?
TTITLE7=My baby worships me 
TTITLE8=Cadillac 
TTITLE9=Devil's right hand 
TTITLE10=A little bit in love 
TTITLE11=The Crush
TTITLE12=What'll You do about me?
TTITLE13=Cry myself to sleep 
EXTD=
EXTT0=
EXTT1=
EXTT2=
EXTT3=
EXTT4=
EXTT5=
EXTT6=
EXTT7=
EXTT8=
EXTT9=
EXTT10=
EXTT11=
EXTT12=
EXTT13=
PLAYORDER=
